<?xml version="1.0" encoding="UTF-8" standalone="no"?>
<!-- Created with Inkscape (http://www.inkscape.org/) -->

<svg
   xmlns:dc="http://purl.org/dc/elements/1.1/"
   xmlns:cc="http://creativecommons.org/ns#"
   xmlns:rdf="http://www.w3.org/1999/02/22-rdf-syntax-ns#"
   xmlns:svg="http://www.w3.org/2000/svg"
   xmlns="http://www.w3.org/2000/svg"
   xmlns:sodipodi="http://sodipodi.sourceforge.net/DTD/sodipodi-0.dtd"
   xmlns:inkscape="http://www.inkscape.org/namespaces/inkscape"
   width="297mm"
   height="210mm"
   id="svg2985"
   version="1.1"
   inkscape:version="0.48.3.1 r9886"
   sodipodi:docname="FSMD-1.svg">
  <defs
     id="defs2987" />
  <sodipodi:namedview
     inkscape:document-units="mm"
     pagecolor="#ffffff"
     bordercolor="#666666"
     borderopacity="1.0"
     inkscape:pageopacity="0.0"
     inkscape:pageshadow="2"
     inkscape:zoom="0.65190008"
     inkscape:cx="230.83588"
     inkscape:cy="461.91716"
     inkscape:current-layer="layer1"
     id="namedview2989"
     showgrid="true"
     showguides="true"
     inkscape:guide-bbox="true"
     inkscape:window-width="1440"
     inkscape:window-height="850"
     inkscape:window-x="0"
     inkscape:window-y="0"
     inkscape:window-maximized="1">
    <inkscape:grid
       type="xygrid"
       id="grid2994" />
  </sodipodi:namedview>
  <metadata
     id="metadata2991">
    <rdf:RDF>
      <cc:Work
         rdf:about="">
        <dc:format>image/svg+xml</dc:format>
        <dc:type
           rdf:resource="http://purl.org/dc/dcmitype/StillImage" />
        <dc:title></dc:title>
      </cc:Work>
    </rdf:RDF>
  </metadata>
  <g
     inkscape:label="Layer 1"
     inkscape:groupmode="layer"
     id="layer1">
    <rect
       style="fill:#c83737;fill-opacity:0.125;stroke:#000000;stroke-width:2.00869274;stroke-miterlimit:4;stroke-opacity:1;stroke-dasharray:none"
       id="rect4735"
       width="266.18848"
       height="77.804672"
       x="22.223869"
       y="194.53346"
       rx="14.310431" />
    <rect
       style="fill:#ff6600;fill-opacity:0.57692309;stroke:#000000;stroke-width:2.00869274;stroke-miterlimit:4;stroke-opacity:1;stroke-dasharray:none"
       id="rect4735-4"
       width="266.18848"
       height="77.804672"
       x="22.223869"
       y="284.00882"
       rx="14.310431" />
    <rect
       style="fill:#0000ff;fill-opacity:0.125;stroke:#000000;stroke-width:2.00869274;stroke-miterlimit:4;stroke-opacity:1;stroke-dasharray:none"
       id="rect4735-8"
       width="266.18848"
       height="77.804672"
       x="22.223869"
       y="377.37442"
       rx="14.310431" />
    <rect
       style="fill:#ffcd06;fill-opacity:0.125;stroke:#000000;stroke-width:2.00869274;stroke-miterlimit:4;stroke-opacity:1;stroke-dasharray:none"
       id="rect4735-0"
       width="266.18848"
       height="77.804672"
       x="20.388086"
       y="472.68515"
       rx="14.310431" />
    <text
       xml:space="preserve"
       style="font-size:75.58635712px;font-style:normal;font-weight:normal;line-height:125%;letter-spacing:0px;word-spacing:0px;fill:#000000;fill-opacity:1;stroke:none;font-family:Sans"
       x="89.01416"
       y="236.22855"
       id="text4769"
       sodipodi:linespacing="125%"
       transform="scale(0.97148874,1.029348)"><tspan
         sodipodi:role="line"
         id="tspan4771"
         x="89.01416"
         y="236.22855"
         style="font-size:34.01386261px">routage</tspan></text>
    <text
       xml:space="preserve"
       style="font-size:75.58635712px;font-style:normal;font-weight:normal;line-height:125%;letter-spacing:0px;word-spacing:0px;fill:#000000;fill-opacity:1;stroke:none;font-family:Sans"
       x="87.124512"
       y="410.07718"
       id="text4769-9"
       sodipodi:linespacing="125%"
       transform="scale(0.97148874,1.029348)"><tspan
         sodipodi:role="line"
         id="tspan4771-3"
         x="87.124512"
         y="410.07718"
         style="font-size:34.01386261px">routage</tspan></text>
    <text
       xml:space="preserve"
       style="font-size:75.58635712px;font-style:normal;font-weight:normal;line-height:125%;letter-spacing:0px;word-spacing:0px;fill:#000000;fill-opacity:1;stroke:none;font-family:Sans"
       x="66.338257"
       y="500.78082"
       id="text4794"
       sodipodi:linespacing="125%"
       transform="scale(0.97148874,1.029348)"><tspan
         sodipodi:role="line"
         id="tspan4796"
         x="66.338257"
         y="500.78082"
         style="font-size:34.01386261px">opérateurs</tspan></text>
    <text
       xml:space="preserve"
       style="font-size:75.58635712px;font-style:normal;font-weight:normal;line-height:125%;letter-spacing:0px;word-spacing:0px;fill:#000000;fill-opacity:1;stroke:none;font-family:Sans"
       x="79.565872"
       y="321.26321"
       id="text4798"
       sodipodi:linespacing="125%"
       transform="scale(0.97148874,1.029348)"><tspan
         sodipodi:role="line"
         id="tspan4800"
         x="79.565872"
         y="321.26321"
         style="font-size:34.01386261px">registres</tspan></text>
    <g
       id="g5493">
      <path
         inkscape:connector-curvature="0"
         id="path2996"
         d="m 723.98052,575.99116 c 43.73477,-89.96311 43.73477,-89.96311 43.73477,-89.96311 l -43.73477,0 -17.49391,35.98525 -17.49392,-35.98525 -43.73477,0 43.73477,89.96311 z"
         style="fill:#ffdd55;stroke:#000000;stroke-width:1.77415133px;stroke-linecap:butt;stroke-linejoin:miter;stroke-opacity:1" />
      <path
         inkscape:connector-curvature="0"
         id="path2998"
         d="m 633.01219,441.0465 43.73477,0 17.49391,-26.98893 -78.7226,0 z"
         style="fill:#0000ff;stroke:#000000;stroke-width:1.77415133px;stroke-linecap:butt;stroke-linejoin:miter;stroke-opacity:1" />
      <path
         inkscape:connector-curvature="0"
         id="path2998-1"
         d="m 741.47443,441.0465 43.73478,0 17.4939,-26.98893 -78.72259,0 z"
         style="fill:#0000ff;stroke:#000000;stroke-width:1.77415133px;stroke-linecap:butt;stroke-linejoin:miter;stroke-opacity:1" />
      <path
         inkscape:connector-curvature="0"
         id="path3018"
         d="m 659.25305,441.0465 0,44.98155"
         style="fill:none;stroke:#000000;stroke-width:1.77415133px;stroke-linecap:butt;stroke-linejoin:miter;stroke-opacity:1" />
      <path
         inkscape:connector-curvature="0"
         id="path3020"
         d="m 755.46956,441.0465 0,44.98155"
         style="fill:none;stroke:#000000;stroke-width:1.77415133px;stroke-linecap:butt;stroke-linejoin:miter;stroke-opacity:1" />
      <g
         transform="matrix(1.0397987,0,0,1.0625563,-35.761048,-27.641203)"
         style="fill:#ff661c;fill-opacity:0.68269228"
         id="g5247">
        <rect
           style="fill:#ff661c;fill-opacity:0.68269228;stroke:#000000;stroke-width:1.79419672;stroke-miterlimit:4;stroke-opacity:1;stroke-dasharray:none"
           id="rect3035"
           width="50.472973"
           height="33.866665"
           x="601.11487"
           y="314.09448" />
        <path
           style="fill:#ff661c;fill-opacity:0.68269228;stroke:#000000;stroke-width:1.68787408px;stroke-linecap:butt;stroke-linejoin:miter;stroke-opacity:1"
           d="m 601.11486,322.56114 16.82433,8.46667 -16.82433,8.46666"
           id="path3818"
           inkscape:connector-curvature="0" />
        <rect
           style="fill:#ff661c;fill-opacity:0.68269228;stroke:#000000;stroke-width:1.79419672;stroke-miterlimit:4;stroke-opacity:1;stroke-dasharray:none"
           id="rect3035-3"
           width="50.472973"
           height="33.866665"
           x="660"
           y="314.09448" />
        <path
           style="fill:#ff661c;fill-opacity:0.68269228;stroke:#000000;stroke-width:1.68787408px;stroke-linecap:butt;stroke-linejoin:miter;stroke-opacity:1"
           d="m 660,322.56114 16.82432,8.46667 L 660,339.49447"
           id="path3818-3"
           inkscape:connector-curvature="0" />
        <rect
           style="fill:#ff661c;fill-opacity:0.68269228;stroke:#000000;stroke-width:1.79419672;stroke-miterlimit:4;stroke-opacity:1;stroke-dasharray:none"
           id="rect3035-2"
           width="50.472973"
           height="33.866665"
           x="718.88513"
           y="314.09448" />
        <path
           style="fill:#ff661c;fill-opacity:0.68269228;stroke:#000000;stroke-width:1.68787408px;stroke-linecap:butt;stroke-linejoin:miter;stroke-opacity:1"
           d="m 718.88514,322.56114 16.82432,8.46667 -16.82432,8.46666"
           id="path3818-9"
           inkscape:connector-curvature="0" />
        <rect
           style="fill:#ff661c;fill-opacity:0.68269228;stroke:#000000;stroke-width:1.79419672;stroke-miterlimit:4;stroke-opacity:1;stroke-dasharray:none"
           id="rect3035-3-4"
           width="50.472973"
           height="33.866665"
           x="777.77026"
           y="314.09448" />
        <path
           style="fill:#ff661c;fill-opacity:0.68269228;stroke:#000000;stroke-width:1.68787408px;stroke-linecap:butt;stroke-linejoin:miter;stroke-opacity:1"
           d="m 777.77027,322.56114 16.82432,8.46667 -16.82432,8.46666"
           id="path3818-3-2"
           inkscape:connector-curvature="0" />
      </g>
      <path
         sodipodi:nodetypes="ccccc"
         inkscape:connector-curvature="0"
         id="path2998-0"
         d="m 598.02437,268.31753 34.98782,0 8.74695,-26.98893 -52.48173,0 z"
         style="fill:#d35f5f;stroke:#000000;stroke-width:1.77415133px;stroke-linecap:butt;stroke-linejoin:miter;stroke-opacity:1" />
      <path
         sodipodi:nodetypes="ccccc"
         inkscape:connector-curvature="0"
         id="path2998-0-2"
         d="m 659.25305,268.31753 34.98782,0 8.74695,-26.98893 -52.48173,0 z"
         style="fill:#d35f5f;stroke:#000000;stroke-width:1.77415133px;stroke-linecap:butt;stroke-linejoin:miter;stroke-opacity:1" />
      <path
         sodipodi:nodetypes="ccccc"
         inkscape:connector-curvature="0"
         id="path2998-0-2-4"
         d="m 722.23113,268.31753 34.98782,0 8.74695,-26.98893 -52.48173,0 z"
         style="fill:#d35f5f;stroke:#000000;stroke-width:1.77415133px;stroke-linecap:butt;stroke-linejoin:miter;stroke-opacity:1" />
      <g
         transform="matrix(1.749391,0,0,1.799262,-145.46682,-131.28879)"
         id="g4147">
        <path
           style="fill:none;stroke:#000000;stroke-width:1px;stroke-linecap:butt;stroke-linejoin:miter;stroke-opacity:1"
           d="m 440,139.09448 10,0 0,15 -5,5 -5,-5 z"
           id="path4079"
           inkscape:connector-curvature="0" />
        <path
           style="fill:none;stroke:#000000;stroke-width:1px;stroke-linecap:butt;stroke-linejoin:miter;stroke-opacity:1"
           d="m 475,139.09448 10,0 0,15 -5,5 -5,-5 z"
           id="path4079-7"
           inkscape:connector-curvature="0" />
        <path
           style="fill:none;stroke:#000000;stroke-width:1px;stroke-linecap:butt;stroke-linejoin:miter;stroke-opacity:1"
           d="m 510,139.09448 10,0 0,15 -5,5 -5,-5 z"
           id="path4079-5"
           inkscape:connector-curvature="0" />
      </g>
      <path
         sodipodi:nodetypes="cc"
         inkscape:connector-curvature="0"
         id="path4152"
         d="m 615.51827,268.31735 c 0,35.98525 0,37.7845 0,37.7845"
         style="fill:none;stroke:#000000;stroke-width:1.77415133px;stroke-linecap:butt;stroke-linejoin:miter;stroke-opacity:1" />
      <path
         sodipodi:nodetypes="cc"
         inkscape:connector-curvature="0"
         id="path4152-6"
         d="m 676.74696,268.31735 c 0,35.98525 0,35.98525 0,35.98525"
         style="fill:none;stroke:#000000;stroke-width:1.77415133px;stroke-linecap:butt;stroke-linejoin:miter;stroke-opacity:1" />
      <path
         sodipodi:nodetypes="cccccc"
         inkscape:connector-curvature="0"
         id="path4198"
         d="m 706.48661,574.1919 0,44.98154 -139.95128,0 0,-404.83394 34.98781,0 0,26.98892"
         style="fill:none;stroke:#000000;stroke-width:1.77415133px;stroke-linecap:butt;stroke-linejoin:miter;stroke-opacity:1" />
      <path
         sodipodi:nodetypes="cc"
         inkscape:connector-curvature="0"
         id="path4152-4"
         d="m 739.72503,268.31735 c 0,35.98525 0,37.7845 0,37.7845"
         style="fill:none;stroke:#000000;stroke-width:1.77415133px;stroke-linecap:butt;stroke-linejoin:miter;stroke-opacity:1" />
      <path
         sodipodi:nodetypes="cc"
         inkscape:connector-curvature="0"
         id="path4152-5"
         d="m 799.20434,214.3395 c 0,35.98524 0,89.9631 0,89.9631"
         style="fill:none;stroke:#000000;stroke-width:1.77415133px;stroke-linecap:butt;stroke-linejoin:miter;stroke-opacity:1" />
      <path
         sodipodi:nodetypes="cc"
         inkscape:connector-curvature="0"
         id="path4152-64"
         d="m 633.01219,154.96386 c 0,35.98523 0,86.36456 0,86.36456"
         style="fill:none;stroke:#000000;stroke-width:1.77415133px;stroke-linecap:butt;stroke-linejoin:miter;stroke-opacity:1" />
      <path
         sodipodi:nodetypes="cc"
         inkscape:connector-curvature="0"
         id="path4152-64-5"
         d="m 694.24087,154.96386 c 0,35.98523 0,86.36456 0,86.36456"
         style="fill:none;stroke:#000000;stroke-width:1.77415133px;stroke-linecap:butt;stroke-linejoin:miter;stroke-opacity:1" />
      <path
         sodipodi:nodetypes="cc"
         inkscape:connector-curvature="0"
         id="path4152-9"
         d="m 626.01462,342.0871 c 0,35.98524 0,71.97047 0,71.97047"
         style="fill:none;stroke:#000000;stroke-width:1.77415133px;stroke-linecap:butt;stroke-linejoin:miter;stroke-opacity:1" />
      <path
         sodipodi:nodetypes="cc"
         inkscape:connector-curvature="0"
         id="path4152-9-4"
         d="m 681.99514,342.0871 c 0,35.98524 0,71.97047 0,71.97047"
         style="fill:none;stroke:#000000;stroke-width:1.77415133px;stroke-linecap:butt;stroke-linejoin:miter;stroke-opacity:1" />
      <path
         sodipodi:nodetypes="cc"
         inkscape:connector-curvature="0"
         id="path4152-9-4-3"
         d="m 736.22626,342.0871 c 0,35.98524 0,71.97047 0,71.97047"
         style="fill:none;stroke:#000000;stroke-width:1.77415133px;stroke-linecap:butt;stroke-linejoin:miter;stroke-opacity:1" />
      <path
         sodipodi:nodetypes="cc"
         inkscape:connector-curvature="0"
         id="path4152-9-4-3-3"
         d="m 788.70799,342.0871 c 0,35.98524 0,71.97047 0,71.97047"
         style="fill:none;stroke:#000000;stroke-width:1.77415133px;stroke-linecap:butt;stroke-linejoin:miter;stroke-opacity:1" />
      <path
         sodipodi:nodetypes="cc"
         inkscape:connector-curvature="0"
         id="path4152-64-5-1"
         d="m 755.46956,154.96386 c 0,35.98523 0,86.36456 0,86.36456"
         style="fill:none;stroke:#000000;stroke-width:1.77415133px;stroke-linecap:butt;stroke-linejoin:miter;stroke-opacity:1" />
      <path
         sodipodi:nodetypes="cc"
         inkscape:connector-curvature="0"
         id="path4152-9-6"
         d="m 799.20434,214.3395 c -34.98783,0 -201.17997,0 -201.17997,0"
         style="fill:none;stroke:#000000;stroke-width:1.77415133px;stroke-linecap:butt;stroke-linejoin:miter;stroke-opacity:1" />
      <path
         transform="matrix(1.3995128,0,0,1.4394095,101.19732,-126.21684)"
         d="m 360,236.59448 a 2.5,2.5 0 1 1 -5,0 2.5,2.5 0 1 1 5,0 z"
         sodipodi:ry="2.5"
         sodipodi:rx="2.5"
         sodipodi:cy="236.59448"
         sodipodi:cx="357.5"
         id="path4402"
         style="fill:#000000;fill-opacity:1;stroke:#000000;stroke-width:1.0629921;stroke-miterlimit:4;stroke-opacity:1;stroke-dasharray:none"
         sodipodi:type="arc" />
      <path
         transform="matrix(1.3995128,0,0,1.4394095,223.65469,-126.21685)"
         d="m 360,236.59448 a 2.5,2.5 0 1 1 -5,0 2.5,2.5 0 1 1 5,0 z"
         sodipodi:ry="2.5"
         sodipodi:rx="2.5"
         sodipodi:cy="236.59448"
         sodipodi:cx="357.5"
         id="path4402-0"
         style="fill:#000000;fill-opacity:1;stroke:#000000;stroke-width:1.0629921;stroke-miterlimit:4;stroke-opacity:1;stroke-dasharray:none"
         sodipodi:type="arc" />
      <path
         transform="matrix(1.3995128,0,0,1.4394095,158.92722,-126.21685)"
         d="m 360,236.59448 a 2.5,2.5 0 1 1 -5,0 2.5,2.5 0 1 1 5,0 z"
         sodipodi:ry="2.5"
         sodipodi:rx="2.5"
         sodipodi:cy="236.59448"
         sodipodi:cx="357.5"
         id="path4402-6"
         style="fill:#000000;fill-opacity:1;stroke:#000000;stroke-width:1.0629921;stroke-miterlimit:4;stroke-opacity:1;stroke-dasharray:none"
         sodipodi:type="arc" />
      <path
         sodipodi:nodetypes="cc"
         inkscape:connector-curvature="0"
         id="path4152-1"
         d="m 659.25305,214.3395 c 0,35.98524 0,26.98892 0,26.98892"
         style="fill:none;stroke:#000000;stroke-width:1.77415133px;stroke-linecap:butt;stroke-linejoin:miter;stroke-opacity:1" />
      <path
         sodipodi:nodetypes="cc"
         inkscape:connector-curvature="0"
         id="path4152-1-1"
         d="m 723.98052,212.54023 c 0,35.98525 0,28.78819 0,28.78819"
         style="fill:none;stroke:#000000;stroke-width:1.77415133px;stroke-linecap:butt;stroke-linejoin:miter;stroke-opacity:1" />
      <path
         inkscape:connector-curvature="0"
         id="path4079-4"
         d="m 921.6617,363.67824 0,-17.99261 26.24087,0 8.74695,8.9963 -8.74695,8.99631 z"
         style="fill:none;stroke:#000000;stroke-width:1.77415133px;stroke-linecap:butt;stroke-linejoin:miter;stroke-opacity:1" />
      <path
         transform="matrix(1.3995128,0,0,1.4394095,288.38216,14.125579)"
         d="m 360,236.59448 a 2.5,2.5 0 1 1 -5,0 2.5,2.5 0 1 1 5,0 z"
         sodipodi:ry="2.5"
         sodipodi:rx="2.5"
         sodipodi:cy="236.59448"
         sodipodi:cx="357.5"
         id="path4402-2"
         style="fill:#000000;fill-opacity:1;stroke:#000000;stroke-width:1.0629921;stroke-miterlimit:4;stroke-opacity:1;stroke-dasharray:none"
         sodipodi:type="arc" />
      <path
         sodipodi:nodetypes="cc"
         inkscape:connector-curvature="0"
         id="path4152-6-2"
         d="m 921.6617,354.68193 c -34.98781,0 -131.20433,0 -131.20433,0"
         style="fill:none;stroke:#000000;stroke-width:1.77415133px;stroke-linecap:butt;stroke-linejoin:miter;stroke-opacity:1" />
      <path
         inkscape:connector-curvature="0"
         id="path4079-4-4"
         d="m 921.6617,388.86791 0,-17.99262 26.24087,0 8.74695,8.99631 -8.74695,8.99631 z"
         style="fill:none;stroke:#000000;stroke-width:1.77415133px;stroke-linecap:butt;stroke-linejoin:miter;stroke-opacity:1" />
      <path
         transform="matrix(1.3995128,0,0,1.4394095,235.90042,39.315247)"
         d="m 360,236.59448 a 2.5,2.5 0 1 1 -5,0 2.5,2.5 0 1 1 5,0 z"
         sodipodi:ry="2.5"
         sodipodi:rx="2.5"
         sodipodi:cy="236.59448"
         sodipodi:cx="357.5"
         id="path4402-2-1"
         style="fill:#000000;fill-opacity:1;stroke:#000000;stroke-width:1.0629921;stroke-miterlimit:4;stroke-opacity:1;stroke-dasharray:none"
         sodipodi:type="arc" />
      <path
         sodipodi:nodetypes="cc"
         inkscape:connector-curvature="0"
         id="path4152-6-2-2"
         d="m 921.6617,379.8716 c -34.98781,0 -185.43544,0 -185.43544,0"
         style="fill:none;stroke:#000000;stroke-width:1.77415133px;stroke-linecap:butt;stroke-linejoin:miter;stroke-opacity:1" />
      <path
         inkscape:connector-curvature="0"
         id="path4079-4-0"
         d="m 431.83222,264.71884 0,-17.99263 26.24087,0 8.74695,8.99631 -8.74695,8.99632 z"
         style="fill:none;stroke:#000000;stroke-width:1.77415133px;stroke-linecap:butt;stroke-linejoin:miter;stroke-opacity:1" />
      <path
         sodipodi:nodetypes="cc"
         inkscape:connector-curvature="0"
         id="path4152-6-2-5"
         d="m 594.52559,255.72252 c -34.98782,0 -127.70555,0 -127.70555,0"
         style="fill:none;stroke:#000000;stroke-width:1.77415133px;stroke-linecap:butt;stroke-linejoin:miter;stroke-opacity:1" />
      <path
         inkscape:connector-curvature="0"
         id="path4079-4-0-7"
         d="m 431.83222,439.24725 0,-17.99263 26.24087,0 8.74695,8.99631 -8.74695,8.99632 z"
         style="fill:none;stroke:#000000;stroke-width:1.77415133px;stroke-linecap:butt;stroke-linejoin:miter;stroke-opacity:1" />
      <path
         sodipodi:nodetypes="cc"
         inkscape:connector-curvature="0"
         id="path4152-6-2-5-4"
         d="m 624.26523,430.25093 c -34.98782,0 -157.44519,0 -157.44519,0"
         style="fill:none;stroke:#000000;stroke-width:1.77415133px;stroke-linecap:butt;stroke-linejoin:miter;stroke-opacity:1" />
      <g
         transform="matrix(1.749391,0,0,1.799262,-138.46925,-188.86518)"
         id="g4725">
        <path
           style="fill:none;stroke:#000000;stroke-width:1px;stroke-linecap:butt;stroke-linejoin:miter;stroke-opacity:1"
           d="m 325,409.09448 0,-10 15,0 5,5 -5,5 z"
           id="path4079-4-0-72"
           inkscape:connector-curvature="0" />
        <path
           style="fill:none;stroke:#000000;stroke-width:1px;stroke-linecap:butt;stroke-linejoin:miter;stroke-opacity:1"
           d="m 463,404.09448 c -20,0 -118,0 -118,0"
           id="path4152-6-2-5-1"
           inkscape:connector-curvature="0"
           sodipodi:nodetypes="cc" />
      </g>
      <g
         transform="matrix(1.0397987,0,0,1.0625563,466.46172,-155.14796)"
         id="g5016">
        <path
           sodipodi:type="arc"
           style="fill:#000000;fill-opacity:1;stroke:#000000;stroke-width:1.0629921;stroke-miterlimit:4;stroke-opacity:1;stroke-dasharray:none"
           id="path4989"
           sodipodi:cx="310"
           sodipodi:cy="639.09448"
           sodipodi:rx="10"
           sodipodi:ry="5"
           d="m 320,639.09448 c 0,2.76143 -4.47715,5 -10,5 -5.52285,0 -10,-2.23857 -10,-5 0,-2.76142 4.47715,-5 10,-5 5.52285,0 10,2.23858 10,5 z"
           transform="matrix(0.5,0,0,1,150,0)" />
        <path
           sodipodi:type="arc"
           style="fill:#000000;fill-opacity:1;stroke:#000000;stroke-width:1.0629921;stroke-miterlimit:4;stroke-opacity:1;stroke-dasharray:none"
           id="path4989-6"
           sodipodi:cx="310"
           sodipodi:cy="639.09448"
           sodipodi:rx="10"
           sodipodi:ry="5"
           d="m 320,639.09448 c 0,2.76143 -4.47715,5 -10,5 -5.52285,0 -10,-2.23857 -10,-5 0,-2.76142 4.47715,-5 10,-5 5.52285,0 10,2.23858 10,5 z"
           transform="matrix(0.5,0,0,1,172,4.459696e-6)" />
        <path
           sodipodi:type="arc"
           style="fill:#000000;fill-opacity:1;stroke:#000000;stroke-width:1.0629921;stroke-miterlimit:4;stroke-opacity:1;stroke-dasharray:none"
           id="path4989-3"
           sodipodi:cx="310"
           sodipodi:cy="639.09448"
           sodipodi:rx="10"
           sodipodi:ry="5"
           d="m 320,639.09448 c 0,2.76143 -4.47715,5 -10,5 -5.52285,0 -10,-2.23857 -10,-5 0,-2.76142 4.47715,-5 10,-5 5.52285,0 10,2.23858 10,5 z"
           transform="matrix(0.5,0,0,1,192,4.459696e-6)" />
      </g>
      <text
         transform="scale(0.9296503,1.0756733)"
         sodipodi:linespacing="125%"
         id="text5035"
         y="96.88459"
         x="677.36237"
         style="font-size:28.98146629px;font-style:normal;font-weight:normal;line-height:125%;letter-spacing:0px;word-spacing:0px;fill:#000000;fill-opacity:1;stroke:none;font-family:Sans"
         xml:space="preserve"><tspan
           y="96.88459"
           x="677.36237"
           id="tspan5037"
           sodipodi:role="line">Données In</tspan></text>
      <text
         transform="scale(1.0183897,0.9819424)"
         sodipodi:linespacing="125%"
         id="text5039"
         y="300.91003"
         x="832.75372"
         style="font-size:30.30588531px;font-style:normal;font-weight:normal;line-height:125%;letter-spacing:0px;word-spacing:0px;fill:#000000;fill-opacity:1;stroke:none;font-family:Sans"
         xml:space="preserve"><tspan
           y="300.91003"
           x="832.75372"
           id="tspan5041"
           sodipodi:role="line">Données Out</tspan></text>
      <text
         transform="matrix(4.5154425e-4,-0.90109967,1.1097549,5.8071079e-4,0,0)"
         sodipodi:linespacing="125%"
         id="text5043"
         y="370.8989"
         x="-563.50281"
         style="font-size:28.36951447px;font-style:normal;font-weight:normal;line-height:125%;letter-spacing:0px;word-spacing:0px;fill:#000000;fill-opacity:1;stroke:none;font-family:Sans"
         xml:space="preserve"><tspan
           y="370.8989"
           x="-563.50281"
           id="tspan5045"
           sodipodi:role="line">Commande/contrôle</tspan></text>
    </g>
  </g>
</svg>
