<?xml version="1.0" encoding="UTF-8" standalone="no"?>
<!DOCTYPE svg PUBLIC "-//W3C//DTD SVG 1.1//EN"
 "http://www.w3.org/Graphics/SVG/1.1/DTD/svg11.dtd">
<!-- Generated by graphviz version 2.40.1 (20161225.0304)
 -->
<!-- Title: DFG Pages: 1 -->
<svg width="345pt" height="628pt"
 viewBox="0.00 0.00 345.50 627.69" xmlns="http://www.w3.org/2000/svg" xmlns:xlink="http://www.w3.org/1999/xlink">
<g id="graph0" class="graph" transform="scale(1 1) rotate(0) translate(4 623.6909)">
<title>DFG</title>
<polygon fill="#ffffff" stroke="transparent" points="-4,4 -4,-623.6909 341.496,-623.6909 341.496,4 -4,4"/>
<!-- x -->
<g id="node1" class="node">
<title>x</title>
<ellipse fill="#00ff00" stroke="#00ff00" cx="210.748" cy="-596.9429" rx="21.3963" ry="21.3963"/>
<text text-anchor="middle" x="210.748" y="-593.2429" font-family="Times,serif" font-size="14.00" fill="#000000">? x</text>
</g>
<!-- mul1 -->
<g id="node7" class="node">
<title>mul1</title>
<ellipse fill="#ffa500" stroke="#ffa500" cx="160.748" cy="-505.1949" rx="18" ry="18"/>
<text text-anchor="middle" x="160.748" y="-501.4949" font-family="Times,serif" font-size="14.00" fill="#000000">*</text>
</g>
<!-- x&#45;&gt;mul1 -->
<g id="edge1" class="edge">
<title>x&#45;&gt;mul1</title>
<path fill="none" stroke="#000000" d="M199.8764,-577.9305C196.0074,-571.0992 191.6453,-563.3224 187.748,-556.1949 183.1383,-547.7646 178.193,-538.493 173.8106,-530.1936"/>
<polygon fill="#000000" stroke="#000000" points="176.9029,-528.5539 169.1497,-521.3331 170.7077,-531.8128 176.9029,-528.5539"/>
<text text-anchor="middle" x="191.248" y="-544.9949" font-family="Times,serif" font-size="14.00" fill="#000000">x</text>
</g>
<!-- mul2 -->
<g id="node8" class="node">
<title>mul2</title>
<ellipse fill="#ffa500" stroke="#ffa500" cx="176.748" cy="-331.1949" rx="18" ry="18"/>
<text text-anchor="middle" x="176.748" y="-327.4949" font-family="Times,serif" font-size="14.00" fill="#000000">*</text>
</g>
<!-- x&#45;&gt;mul2 -->
<g id="edge6" class="edge">
<title>x&#45;&gt;mul2</title>
<path fill="none" stroke="#000000" d="M208.0231,-575.6449C201.9345,-528.0559 187.2244,-413.0795 180.3726,-359.5253"/>
<polygon fill="#000000" stroke="#000000" points="183.8146,-358.8484 179.0738,-349.3734 176.8712,-359.7368 183.8146,-358.8484"/>
<text text-anchor="middle" x="197.248" y="-457.9949" font-family="Times,serif" font-size="14.00" fill="#000000">x</text>
</g>
<!-- mul3 -->
<g id="node9" class="node">
<title>mul3</title>
<ellipse fill="#ffa500" stroke="#ffa500" cx="139.748" cy="-185.1949" rx="18" ry="18"/>
<text text-anchor="middle" x="139.748" y="-181.4949" font-family="Times,serif" font-size="14.00" fill="#000000">*</text>
</g>
<!-- x&#45;&gt;mul3 -->
<g id="edge10" class="edge">
<title>x&#45;&gt;mul3</title>
<path fill="none" stroke="#000000" d="M226.9042,-582.7969C244.0659,-566.12 268.748,-536.665 268.748,-505.1949 268.748,-505.1949 268.748,-505.1949 268.748,-258.1949 268.748,-212.0924 205.5688,-194.7651 167.6398,-188.5168"/>
<polygon fill="#000000" stroke="#000000" points="168.0915,-185.0455 157.6849,-187.0335 167.0599,-191.9691 168.0915,-185.0455"/>
<text text-anchor="middle" x="272.248" y="-370.9949" font-family="Times,serif" font-size="14.00" fill="#000000">x</text>
</g>
<!-- p -->
<g id="node2" class="node">
<title>p</title>
<ellipse fill="#00ff00" stroke="#00ff00" cx="34.748" cy="-28.5975" rx="28.6953" ry="28.6953"/>
<text text-anchor="middle" x="34.748" y="-24.8975" font-family="Times,serif" font-size="14.00" fill="#000000">!P(x)</text>
</g>
<!-- a0 -->
<g id="node3" class="node">
<title>a0</title>
<ellipse fill="#00ff00" stroke="#00ff00" cx="22.748" cy="-596.9429" rx="22.9987" ry="22.9987"/>
<text text-anchor="middle" x="22.748" y="-593.2429" font-family="Times,serif" font-size="14.00" fill="#000000">?a0</text>
</g>
<!-- add3 -->
<g id="node12" class="node">
<title>add3</title>
<ellipse fill="#98f5ff" stroke="#98f5ff" cx="34.748" cy="-112.1949" rx="18" ry="18"/>
<text text-anchor="middle" x="34.748" y="-108.4949" font-family="Times,serif" font-size="14.00" fill="#000000">+</text>
</g>
<!-- a0&#45;&gt;add3 -->
<g id="edge12" class="edge">
<title>a0&#45;&gt;add3</title>
<path fill="none" stroke="#000000" d="M22.748,-573.9426C22.748,-555.3859 22.748,-528.6098 22.748,-505.1949 22.748,-505.1949 22.748,-505.1949 22.748,-185.1949 22.748,-170.0945 25.279,-153.4671 28.0163,-139.9001"/>
<polygon fill="#000000" stroke="#000000" points="31.5156,-140.2777 30.2113,-129.7635 24.6741,-138.7962 31.5156,-140.2777"/>
<text text-anchor="middle" x="29.248" y="-327.4949" font-family="Times,serif" font-size="14.00" fill="#000000">a0</text>
</g>
<!-- a1 -->
<g id="node4" class="node">
<title>a1</title>
<ellipse fill="#00ff00" stroke="#00ff00" cx="85.748" cy="-596.9429" rx="22.9987" ry="22.9987"/>
<text text-anchor="middle" x="85.748" y="-593.2429" font-family="Times,serif" font-size="14.00" fill="#000000">?a1</text>
</g>
<!-- add2 -->
<g id="node11" class="node">
<title>add2</title>
<ellipse fill="#98f5ff" stroke="#98f5ff" cx="139.748" cy="-258.1949" rx="18" ry="18"/>
<text text-anchor="middle" x="139.748" y="-254.4949" font-family="Times,serif" font-size="14.00" fill="#000000">+</text>
</g>
<!-- a1&#45;&gt;add2 -->
<g id="edge8" class="edge">
<title>a1&#45;&gt;add2</title>
<path fill="none" stroke="#000000" d="M85.748,-573.9426C85.748,-555.3859 85.748,-528.6098 85.748,-505.1949 85.748,-505.1949 85.748,-505.1949 85.748,-331.1949 85.748,-308.8491 102.3042,-288.8681 117.0818,-275.4841"/>
<polygon fill="#000000" stroke="#000000" points="119.6437,-277.8999 124.9922,-268.7542 115.1078,-272.5683 119.6437,-277.8999"/>
<text text-anchor="middle" x="92.248" y="-414.4949" font-family="Times,serif" font-size="14.00" fill="#000000">a1</text>
</g>
<!-- a2 -->
<g id="node5" class="node">
<title>a2</title>
<ellipse fill="#00ff00" stroke="#00ff00" cx="314.748" cy="-596.9429" rx="22.9987" ry="22.9987"/>
<text text-anchor="middle" x="314.748" y="-593.2429" font-family="Times,serif" font-size="14.00" fill="#000000">?a2</text>
</g>
<!-- add1 -->
<g id="node10" class="node">
<title>add1</title>
<ellipse fill="#98f5ff" stroke="#98f5ff" cx="222.748" cy="-418.1949" rx="18" ry="18"/>
<text text-anchor="middle" x="222.748" y="-414.4949" font-family="Times,serif" font-size="14.00" fill="#000000">+</text>
</g>
<!-- a2&#45;&gt;add1 -->
<g id="edge4" class="edge">
<title>a2&#45;&gt;add1</title>
<path fill="none" stroke="#000000" d="M304.1944,-576.4382C287.2827,-543.5803 254.1524,-479.2109 235.7866,-443.5278"/>
<polygon fill="#000000" stroke="#000000" points="238.7122,-441.5638 231.0238,-434.2741 232.4882,-444.7672 238.7122,-441.5638"/>
<text text-anchor="middle" x="282.248" y="-501.4949" font-family="Times,serif" font-size="14.00" fill="#000000">a2</text>
</g>
<!-- a3 -->
<g id="node6" class="node">
<title>a3</title>
<ellipse fill="#00ff00" stroke="#00ff00" cx="148.748" cy="-596.9429" rx="22.9987" ry="22.9987"/>
<text text-anchor="middle" x="148.748" y="-593.2429" font-family="Times,serif" font-size="14.00" fill="#000000">?a3</text>
</g>
<!-- a3&#45;&gt;mul1 -->
<g id="edge2" class="edge">
<title>a3&#45;&gt;mul1</title>
<path fill="none" stroke="#000000" d="M147.7297,-574.0339C147.6466,-563.9118 148.0503,-551.9028 149.748,-541.1949 150.2338,-538.131 150.9176,-534.9656 151.7093,-531.8416"/>
<polygon fill="#000000" stroke="#000000" points="155.088,-532.7569 154.4959,-522.1786 148.362,-530.8173 155.088,-532.7569"/>
<text text-anchor="middle" x="156.248" y="-544.9949" font-family="Times,serif" font-size="14.00" fill="#000000">a3</text>
</g>
<!-- mul1&#45;&gt;add1 -->
<g id="edge3" class="edge">
<title>mul1&#45;&gt;add1</title>
<path fill="none" stroke="#000000" d="M164.4394,-487.5524C167.2015,-477.18 171.7336,-464.1845 178.748,-454.1949 184.1291,-446.5314 191.565,-439.6036 198.7935,-433.9188"/>
<polygon fill="#000000" stroke="#000000" points="201.0669,-436.5915 207.0485,-427.8467 196.9191,-430.9527 201.0669,-436.5915"/>
</g>
<!-- mul2&#45;&gt;add2 -->
<g id="edge7" class="edge">
<title>mul2&#45;&gt;add2</title>
<path fill="none" stroke="#000000" d="M168.5365,-314.9939C163.842,-305.7318 157.8516,-293.9129 152.5521,-283.4572"/>
<polygon fill="#000000" stroke="#000000" points="155.5794,-281.6881 147.9365,-274.3507 149.3356,-284.8528 155.5794,-281.6881"/>
</g>
<!-- mul3&#45;&gt;add3 -->
<g id="edge11" class="edge">
<title>mul3&#45;&gt;add3</title>
<path fill="none" stroke="#000000" d="M124.704,-174.7358C107.3166,-162.6474 78.492,-142.6074 58.1651,-128.4754"/>
<polygon fill="#000000" stroke="#000000" points="59.9726,-125.4693 49.764,-122.6346 55.9767,-131.2168 59.9726,-125.4693"/>
</g>
<!-- add1&#45;&gt;mul2 -->
<g id="edge5" class="edge">
<title>add1&#45;&gt;mul2</title>
<path fill="none" stroke="#000000" d="M214.3109,-402.2378C207.5449,-389.4413 197.9227,-371.2428 190.1111,-356.4686"/>
<polygon fill="#000000" stroke="#000000" points="193.0558,-354.5499 185.2874,-347.3455 186.8675,-357.8219 193.0558,-354.5499"/>
</g>
<!-- add2&#45;&gt;mul3 -->
<g id="edge9" class="edge">
<title>add2&#45;&gt;mul3</title>
<path fill="none" stroke="#000000" d="M139.748,-240.15C139.748,-232.0778 139.748,-222.3713 139.748,-213.3767"/>
<polygon fill="#000000" stroke="#000000" points="143.2481,-213.2852 139.748,-203.2853 136.2481,-213.2853 143.2481,-213.2852"/>
</g>
<!-- add3&#45;&gt;p -->
<g id="edge13" class="edge">
<title>add3&#45;&gt;p</title>
<path fill="none" stroke="#000000" d="M34.748,-94.0555C34.748,-86.2401 34.748,-76.7793 34.748,-67.5088"/>
<polygon fill="#000000" stroke="#000000" points="38.2481,-67.2208 34.748,-57.2208 31.2481,-67.2208 38.2481,-67.2208"/>
</g>
</g>
</svg>
